<?xml version="1.0" encoding="UTF-8"?>
<svg xmlns="http://www.w3.org/2000/svg" xmlns:xlink="http://www.w3.org/1999/xlink" viewBox="0 0 384 384" width="384px" height="384px">
<g id="surface28875124">
<path style=" stroke:none;fill-rule:nonzero;fill:rgb(100%,100%,100%);fill-opacity:1;" d="M 329.15625 48.1875 C 323.839844 47.625 318.058594 48.453125 312.25 50.75 C 305.050781 53.582031 192.230469 101.039062 87.0625 145.3125 L 52.3125 159.9375 C 38.855469 165.394531 32.0625 174.265625 32.0625 186.21875 C 32.0625 194.585938 35.605469 205.9375 52.5 212.625 L 111.15625 236.125 C 116.226562 251.339844 128.007812 286.671875 130.96875 296.0625 C 132.730469 301.628906 137.175781 315.65625 148.40625 318.9375 C 150.710938 319.722656 153.113281 320.125 155.5625 320.125 C 162.652344 320.125 167.753906 316.828125 170.25 314.90625 L 207.53125 283.375 L 252.8125 325.25 C 254.554688 327.027344 263.789062 336 276.1875 336 C 291.660156 336 303.394531 323.121094 305.84375 310.65625 C 307.171875 303.824219 350.84375 84.59375 350.84375 84.625 C 354.765625 67.039062 347.714844 57.917969 343.1875 54.03125 C 339.308594 50.710938 334.472656 48.75 329.15625 48.1875 Z M 318.5625 82.75 C 312.53125 112.988281 279.648438 278.050781 274.65625 301.84375 L 208.46875 240.625 L 163.5625 278.65625 L 176 230 C 176 230 261.800781 143.148438 266.96875 138.09375 C 271.128906 134.046875 272 132.625 272 131.21875 C 272 129.347656 271.035156 128 268.8125 128 C 266.8125 128 264.097656 129.917969 262.65625 130.8125 C 244.363281 142.21875 166.464844 186.597656 128.125 208.40625 L 72.5 186.1875 L 99.5 174.84375 C 168.285156 145.882812 290.785156 94.300781 318.5625 82.75 Z M 318.5625 82.75 "/>
</g>
</svg>
